<?xml version="1.0" encoding="iso-8859-1"?>
<!-- Generator: Adobe Illustrator 19.0.0, SVG Export Plug-In . SVG Version: 6.00 Build 0)  -->
<svg version="1.1" id="Layer_1" xmlns="http://www.w3.org/2000/svg" xmlns:xlink="http://www.w3.org/1999/xlink" x="0px" y="0px"
	 viewBox="0 0 512 512" style="enable-background:new 0 0 512 512;" xml:space="preserve">
<g transform="translate(1 1)">
	<path style="fill:#F0F0F0;" d="M276.695,389.508L276.695,389.508c-47.729,0-86.78-39.051-86.78-86.78V94.458
		c0-47.729,39.051-86.78,86.78-86.78s86.78,39.051,86.78,86.78v208.271C363.475,350.458,324.424,389.508,276.695,389.508"/>
	<g>
		<path style="fill:#E2E3E5;" d="M259.339,511c-5.207,0-8.678-3.471-8.678-8.678v-60.746c0-5.207,3.471-8.678,8.678-8.678
			s8.678,3.471,8.678,8.678v60.746C268.017,507.529,264.546,511,259.339,511z"/>
		<path style="fill:#E2E3E5;" d="M311.407,511H207.271c-5.207,0-8.678-3.471-8.678-8.678c0-5.207,3.471-8.678,8.678-8.678h104.136
			c5.207,0,8.678,3.471,8.678,8.678C320.085,507.529,316.614,511,311.407,511z"/>
		<path style="fill:#E2E3E5;" d="M259.339,450.254c-76.366,0-138.847-62.481-138.847-138.847v-52.068
			c0-5.207,3.471-8.678,8.678-8.678c5.207,0,8.678,3.471,8.678,8.678v52.068c0,66.82,54.671,121.492,121.492,121.492
			s121.492-54.671,121.492-121.492v-52.068c0-5.207,3.471-8.678,8.678-8.678s8.678,3.471,8.678,8.678v52.068
			C398.186,387.773,335.705,450.254,259.339,450.254z"/>
	</g>
	<path style="fill:#E0E0E0;" d="M250.661,389.508L250.661,389.508c-47.729,0-86.78-39.051-86.78-86.78V94.458
		c0-47.729,39.051-86.78,86.78-86.78s86.78,39.051,86.78,86.78v208.271C337.441,350.458,298.39,389.508,250.661,389.508"/>
	<path style="fill:#F0F0F0;" d="M250.661,389.508L250.661,389.508c-47.729,0-86.78-39.051-86.78-86.78V94.458
		c0-47.729,39.051-86.78,86.78-86.78s60.746,39.051,60.746,86.78v208.271C311.407,350.458,298.39,389.508,250.661,389.508"/>
	<path style="fill:#EEEEEE;" d="M250.661,389.508c-47.729,0-60.746-39.051-60.746-86.78V94.458c0-47.729,13.017-86.78,60.746-86.78
		c-47.729,0-86.78,39.051-86.78,86.78v208.271C163.881,350.458,202.932,389.508,250.661,389.508"/>
	<g>
		<path style="fill:#B6B6B6;" d="M250.661,441.576c-76.366,0-138.847-62.481-138.847-138.847v-52.068
			c0-5.207,3.471-8.678,8.678-8.678s8.678,3.471,8.678,8.678v52.068c0,66.82,54.671,121.492,121.492,121.492
			s121.492-54.671,121.492-121.492v-52.068c0-5.207,3.471-8.678,8.678-8.678s8.678,3.471,8.678,8.678v52.068
			C389.508,379.095,327.027,441.576,250.661,441.576z"/>
		<path style="fill:#B6B6B6;" d="M250.661,398.186c-52.936,0-95.458-42.522-95.458-95.458V94.458
			C155.203,41.522,197.725-1,250.661-1s95.458,42.522,95.458,95.458v208.271C346.119,355.664,303.597,398.186,250.661,398.186z
			 M250.661,16.356c-43.39,0-78.102,34.712-78.102,78.102v208.271c0,43.39,34.712,78.102,78.102,78.102s78.102-34.712,78.102-78.102
			V94.458C328.763,51.068,294.051,16.356,250.661,16.356z"/>
		<path style="fill:#B6B6B6;" d="M250.661,502.322c-5.207,0-8.678-3.471-8.678-8.678v-60.746c0-5.207,3.471-8.678,8.678-8.678
			c5.207,0,8.678,3.471,8.678,8.678v60.746C259.339,498.851,255.868,502.322,250.661,502.322z"/>
		<path style="fill:#B6B6B6;" d="M302.729,502.322H198.593c-5.207,0-8.678-3.471-8.678-8.678s3.471-8.678,8.678-8.678h104.136
			c5.207,0,8.678,3.471,8.678,8.678S307.936,502.322,302.729,502.322z"/>
	</g>
</g>
<g>
</g>
<g>
</g>
<g>
</g>
<g>
</g>
<g>
</g>
<g>
</g>
<g>
</g>
<g>
</g>
<g>
</g>
<g>
</g>
<g>
</g>
<g>
</g>
<g>
</g>
<g>
</g>
<g>
</g>
</svg>
